<svg xmlns="http://www.w3.org/2000/svg" xmlns:xlink="http://www.w3.org/1999/xlink" width="892.875" height="356.357" viewBox="0 0 892.875 356.357">
  <defs>
    <linearGradient id="linear-gradient" x1="0.856" y1="1.37" x2="0.06" y2="-0.741" gradientUnits="objectBoundingBox">
      <stop offset="0" stop-color="#010c37"/>
      <stop offset="1" stop-color="#002bff"/>
    </linearGradient>
  </defs>
  <path id="Subtraction_4" data-name="Subtraction 4" d="M888.725-1350.5H.077c-.008-.181-.014-.349-.018-.5a154.807,154.807,0,0,1,2.715-33.562,155.66,155.66,0,0,1,9.686-31.531c8.51-19.941,21.333-38.8,38.111-56.045a261.2,261.2,0,0,1,52.312-40.942,358.507,358.507,0,0,1,66.288-30.89,454.757,454.757,0,0,1,77.152-19.509,526.243,526.243,0,0,1,84.906-6.8A560.143,560.143,0,0,1,394-1566.717c28.695,3.249,51.491,4.828,69.691,4.828,55.782,0,66.123-15.021,81.776-37.759l0-.006c3.814-5.541,8.137-11.82,13.487-18.373a167.027,167.027,0,0,1,20.159-20.738c4.328-3.756,9.047-7.479,14.026-11.066,5.39-3.882,11.253-7.727,17.428-11.428,6.618-3.968,13.82-7.91,21.406-11.715,8.056-4.041,16.791-8.053,25.963-11.926,8.679-3.663,17.323-6.889,25.691-9.588,8.083-2.607,16.136-4.795,23.935-6.5a200.848,200.848,0,0,1,42.776-4.866,157.883,157.883,0,0,1,36.31,4.117,142.667,142.667,0,0,1,30.221,10.854,150.542,150.542,0,0,1,43.717,32.933,172.475,172.475,0,0,1,14.263,17.59,174.382,174.382,0,0,1,9.712,15.345,123.692,123.692,0,0,1,7.309,14.97V-1351l-.122.02-.249.04C890.712-1350.814,889.8-1350.67,888.725-1350.5Z" transform="translate(0.501 1706.357)" stroke="#707070" stroke-width="1" fill="url(#linear-gradient)"/>
</svg>
