<svg xmlns="http://www.w3.org/2000/svg" xmlns:xlink="http://www.w3.org/1999/xlink" width="820.472" height="791.288" viewBox="0 0 820.472 791.288">
  <defs>
    <linearGradient id="linear-gradient" x1="0.5" x2="0.5" y2="1" gradientUnits="objectBoundingBox">
      <stop offset="0" stop-color="#09f"/>
      <stop offset="1" stop-color="#000a33"/>
    </linearGradient>
    <filter id="Subtraction_1" x="0" y="0" width="820.472" height="791.288" filterUnits="userSpaceOnUse">
      <feOffset dx="3" dy="3" input="SourceAlpha"/>
      <feGaussianBlur stdDeviation="3" result="blur"/>
      <feFlood flood-opacity="0.161"/>
      <feComposite operator="in" in2="blur"/>
      <feComposite in="SourceGraphic"/>
    </filter>
  </defs>
  <g transform="matrix(1, 0, 0, 1, 0, 0)" filter="url(#Subtraction_1)">
    <path id="Subtraction_1-2" data-name="Subtraction 1" d="M854.768-751.711h-.031a261.115,261.115,0,0,1-28.4-1.591c-9.174-1.009-18.623-2.521-28.083-4.492a367.732,367.732,0,0,1-54.38-16.025c-31.122-11.731-63.339-28.089-95.756-48.619-12.735-8.065-25.531-16.8-38.031-25.965-10-7.33-19.836-14.951-29.237-22.65-15.989-13.095-25.3-22.008-25.4-22.1v-631.422l.152-.015.449-.04.13-.012.281-.025c.8-.072,2.058-.185,3.744-.335H1229.3a126.138,126.138,0,0,1,20.907,14.772,128.859,128.859,0,0,1,16.792,17.8,149.782,149.782,0,0,1,13.248,20.292,192.114,192.114,0,0,1,10.275,22.247c5.357,13.75,9.909,29.52,13.915,48.208,3.544,16.531,6.252,33.319,8.871,49.555v.005l0,.016c5.431,33.672,10.561,65.476,22.147,88.649a217.551,217.551,0,0,1,22.04,80.708,168.289,168.289,0,0,1-2.4,43.232,126.6,126.6,0,0,1-14.833,40.166,112.271,112.271,0,0,1-19.284,24.387,123.148,123.148,0,0,1-27.634,19.725,162.738,162.738,0,0,1-36.892,13.764,244.244,244.244,0,0,1-47.059,6.5,174.755,174.755,0,0,0-30.059,3.892,132.193,132.193,0,0,0-25.095,8.261,119.122,119.122,0,0,0-38.268,27.414c-21.2,22.384-35.02,51.8-49.647,82.938l0,.01c-13.667,29.095-27.8,59.18-49.05,85.681A205.249,205.249,0,0,1,999.9-807.661a188.283,188.283,0,0,1-20.634,17.277,191.937,191.937,0,0,1-24.511,14.99,216.739,216.739,0,0,1-29,12.244,211.736,211.736,0,0,1-35.375,8.713A230.3,230.3,0,0,1,854.768-751.711Z" transform="translate(-549.45 1531)" fill="url(#linear-gradient)"/>
  </g>
</svg>
